<?xml version="1.0" standalone="no"?><!DOCTYPE svg PUBLIC "-//W3C//DTD SVG 1.1//EN" "http://www.w3.org/Graphics/SVG/1.1/DTD/svg11.dtd"><svg t="1599735427754" class="icon" viewBox="0 0 1024 1024" version="1.1" xmlns="http://www.w3.org/2000/svg" p-id="3131" xmlns:xlink="http://www.w3.org/1999/xlink" width="200" height="200"><defs><style type="text/css"></style></defs><path d="M959.78 393.8c-1-5-3.93-9.17-8.4-11.62-0.59-0.36-15.71-9.7-128.43-92.9-68.29-50.4-113.52-77.01-139.44-90.43-1.83-0.95-3.57-1.84-5.23-2.67-16.36-8.2-24.87-11.13-27.32-11.9-0.11-0.04-0.22-0.02-0.33-0.05-0.01 0-0.03-0.01-0.04-0.02-0.16-0.04-0.33-0.02-0.49-0.07-1.29-0.35-2.62-0.57-4-0.61-0.1-0.01-0.2-0.05-0.31-0.05-0.02 0-0.04 0.02-0.06 0.02-0.03 0-0.06-0.02-0.1-0.02H378.46c-0.03 0-0.05 0.01-0.07 0.01-0.03 0-0.06-0.01-0.09-0.01-0.04 0-0.07 0.02-0.11 0.02-0.04 0-0.08-0.02-0.12-0.02-1.82 0-3.54 0.36-5.18 0.88-0.02 0.01-0.03 0.01-0.05 0.01-0.08 0.03-0.24 0.08-0.34 0.12-0.44 0.15-0.89 0.26-1.3 0.44-3.62 1.27-11.78 4.43-25.38 11.25-1.66 0.83-3.4 1.72-5.22 2.66-25.92 13.43-71.16 40.04-139.45 90.44-112.73 83.2-127.85 92.55-127.97 92.64a17.2 17.2 0 0 0-8.64 11.75c-1 5 0.28 10.19 3.48 14.16L206.5 579.51a17.203 17.203 0 0 0 22.97 3.5l40.49-27.11c0.56-0.3 1.16-0.44 1.7-0.81l31.74-21.26c0.1-0.07 0.17-0.16 0.27-0.22l-20.31 292.86c-0.33 4.76 1.33 9.44 4.58 12.92 3.26 3.49 7.81 5.47 12.58 5.47h423.03a17.201 17.201 0 0 0 17.16-18.39l-20.3-292.87c0.1 0.07 0.17 0.16 0.27 0.22l31.74 21.26c0.53 0.36 1.13 0.5 1.68 0.79L794.61 583c2.93 1.96 6.26 2.91 9.56 2.91 5.04-0.01 10.02-2.22 13.41-6.41l138.48-171.68c3.2-3.96 4.71-9.02 3.72-14.02z" p-id="3132"></path><path d="M645.99 200.68h-0.21s0.13 0.04 0.21 0.07v-0.07zM378.07 200.68v0.07l0.23-0.07h-0.23zM645.78 200.68h-0.16s0.11 0.04 0.16 0.05v-0.05zM498.68 286.92c0 0.01-0.01 0.02-0.01 0.02 8.22 1.42 13.38 1.96 13.38 1.96s5.16-0.53 13.38-1.96c0-0.01-0.01-0.02-0.01-0.02 33.34-5.78 117.18-26.24 120.22-86.23H378.46c3.04 59.99 86.88 80.45 120.22 86.23z" fill="#F15151" p-id="3133"></path><path d="M378.46 200.68h-0.16v0.05c0.05-0.01 0.16-0.05 0.16-0.05z" fill="#F15151" p-id="3134"></path><path d="M353.7 211.55c-0.44 0.22-0.95 0.48-1.41 0.72 2.19 32.18 8.23 100.49 20.8 117.73 16.6 22.76 40.79 34.62 53.12 28.93 12.33-5.69 44.58-4.27 67.82-60.7 1.66-4.05 3.19-7.75 4.64-11.29 0-0.01 0.01-0.02 0.01-0.02-33.34-5.78-117.18-26.24-120.22-86.23 0 0-0.11 0.04-0.16 0.05-0.77 0.24-8.45 2.71-24.6 10.81zM117.79 372.19l144.12 168.38 0.18 0.21 31.74-21.26-0.18-0.21-145.01-169.42c-12.73 9.26-22.84 16.56-30.85 22.3z" fill="#FFFFFF" p-id="3135"></path><path d="M812.72 303.12c-66.81-49.31-111.09-75.5-137.15-89-1.76-0.91-3.43-1.76-5.02-2.56-15.82-7.94-23.51-10.47-24.55-10.8-0.08-0.02-0.21-0.07-0.21-0.07v0.05c0.77 0.24 8.46 2.72 24.61 10.82 0.44 0.22 0.95 0.48 1.41 0.72-2.19 32.18-8.23 100.49-20.8 117.73-16.6 22.76-40.79 34.62-53.12 28.93-12.33-5.69-44.58-4.27-67.82-60.7-1.66-4.05-3.19-7.75-4.64-11.29-8.22 1.42-13.38 1.96-13.38 1.96s-5.16-0.53-13.38-1.96c-1.45 3.53-2.98 7.24-4.64 11.29-23.24 56.44-55.49 55.01-67.82 60.7-12.33 5.69-36.52-6.17-53.12-28.93-12.57-17.24-18.61-85.54-20.8-117.73 0.46-0.24 0.96-0.5 1.41-0.72 16.15-8.1 23.83-10.57 24.61-10.82v-0.05l-0.23 0.07c-1.13 0.36-8.83 2.92-24.54 10.8a418 418 0 0 0-5.02 2.56c-26.06 13.51-70.34 39.7-137.15 89-119.51 88.21-129.95 93.9-129.95 93.9L219.9 568.7l42.01-28.13-144.12-168.38c8.01-5.74 18.12-13.04 30.85-22.3l145.01 169.43 29.64-19.85-22.76 328.18h423.04L700.8 499.46l29.64 19.85 145.01-169.43c12.73 9.26 22.84 16.56 30.85 22.3l-144.12 168.4 42 28.13 138.48-171.68c0-0.01-10.43-5.7-129.94-93.91z m-278.55 79.36c0 12.22-9.91 22.13-22.13 22.13-12.22 0-22.13-9.91-22.13-22.13 0-12.23 9.91-22.13 22.13-22.13 12.22-0.01 22.13 9.9 22.13 22.13z m-22.13 64.29c12.22 0 22.13 9.91 22.13 22.14 0 12.22-9.91 22.13-22.13 22.13-12.22 0-22.13-9.91-22.13-22.13 0-12.23 9.91-22.14 22.13-22.14z m0 130.69c-12.22 0-22.13-9.91-22.13-22.13 0-12.23 9.91-22.13 22.13-22.13 12.23 0 22.13 9.91 22.13 22.13 0 12.23-9.9 22.13-22.13 22.13z" fill="#DB3030" p-id="3136"></path><path d="M525.41 286.92c0 0.01 0.01 0.02 0.01 0.02 1.45 3.53 2.98 7.24 4.64 11.29 23.24 56.44 55.49 55.01 67.82 60.7 12.33 5.69 36.52-6.17 53.12-28.93 12.57-17.24 18.61-85.54 20.8-117.73-0.46-0.24-0.96-0.5-1.41-0.72-16.15-8.1-23.83-10.57-24.61-10.82-0.04-0.01-0.16-0.05-0.16-0.05-3.04 60-86.87 80.46-120.21 86.24zM875.45 349.89L730.44 519.32l-0.18 0.21L762 540.79l0.18-0.21L906.3 372.19c-8.01-5.74-18.12-13.04-30.85-22.3z" fill="#FFFFFF" p-id="3137"></path><path d="M489.91 382.48c0 12.22 9.91 22.13 22.13 22.13 12.22 0 22.13-9.91 22.13-22.13 0-12.23-9.91-22.13-22.13-22.13-12.22-0.01-22.13 9.9-22.13 22.13zM512.04 491.04c12.22 0 22.13-9.91 22.13-22.13 0-12.23-9.91-22.14-22.13-22.14-12.22 0-22.13 9.91-22.13 22.14 0 12.22 9.91 22.13 22.13 22.13zM512.04 533.2c-12.22 0-22.13 9.91-22.13 22.13 0 12.22 9.91 22.13 22.13 22.13 12.23 0 22.13-9.91 22.13-22.13 0-12.22-9.9-22.13-22.13-22.13z" fill="#FB8584" p-id="3138"></path></svg>