<?xml version="1.0" standalone="no"?><!DOCTYPE svg PUBLIC "-//W3C//DTD SVG 1.1//EN" "http://www.w3.org/Graphics/SVG/1.1/DTD/svg11.dtd"><svg t="1599735462679" class="icon" viewBox="0 0 1024 1024" version="1.1" xmlns="http://www.w3.org/2000/svg" p-id="3267" xmlns:xlink="http://www.w3.org/1999/xlink" width="200" height="200"><defs><style type="text/css"></style></defs><path d="M877.87 552.45l3.67 0.51-10.67-18.77-29.38-76.63 0.5-1.03-22.49-58.68-0.83 0.17-43.8-114.22v-82.91c0-59.91-164.6-75.88-261.86-75.88-97.26 0-261.86 15.98-261.86 75.88v82.9L65.61 767.68l15.69 7.2c9.77 4.48 240.5 109.77 345.15 113.92 30.4 1.21 53.41 1.82 68.4 1.82 9.32 0 14.65-0.22 18.15-0.59 3.49 0.36 8.82 0.59 18.14 0.59 14.99 0 38-0.61 68.4-1.82 104.66-4.15 335.38-109.45 345.15-113.92l15.69-7.2-82.51-215.23z" p-id="3268"></path><path d="M821.45 456.72l-7.26 14.99 32.92 57.92-66-9.11-44.91 49.21-11.75-65.58-60.68-27.51 58.75-31.44 7.41-66.21 48.05 46.16 29.09-5.98-50.5-131.72h-0.1v2.03c0 31.75-109 57.49-243.46 57.49-8.71 0-17.32-0.12-25.79-0.32l1.05 2.62 65 14.64-51.15 42.69 6.16 66.34-56.41-35.46-61.19 26.37 16.29-64.6-43.98-50.06 66.48-4.47 0.7-1.18c-93.67-8-160.62-29.18-160.62-54.07v-2.03h-0.1L88.97 758.15s235.99 108.21 338.21 112.27c65.09 2.58 82.05 1.88 85.82 1.02 3.76 0.86 20.72 1.56 85.81-1.02 102.22-4.06 338.21-112.27 338.21-112.27L821.45 456.72z m-673.19 178.9l28.78-60.08-10.55-18.37 13.28-34.62 30.13 4.01 44.69-49.4 12.03 65.52 60.8 27.25-58.61 31.7-7.12 66.24-48.25-45.95-65.18 13.7z m211.15 222.53c-37.41-9.53-79.5-23.72-119.14-38.47l-20.97-49.56 64.5 16.71 50.33-43.66 4.04 66.5 57.08 34.38-35.84 14.1z m208.34-122.06l-63.69-19.55-52.21 41.39-1.1-66.62-55.5-36.86 63.02-21.64 17.91-64.17 40.04 53.25 66.57-2.8-38.27 54.54 23.23 62.46z m220.79 80.56l-0.79 2.77c-16.37 6.1-33.14 12.11-49.87 17.74l-7.35-9.88-66.58 2.44 38.56-54.33-22.9-62.58 63.59 19.88 52.43-41.12 0.74 66.63 54.47 36.6c-4.15 1.69-8.38 3.39-12.7 5.13l-49.6 16.72z" fill="#763BC0" p-id="3269"></path><path d="M429.46 344.73l-66.48 4.47 43.98 50.06-16.29 64.6 61.19-26.37 56.41 35.46-6.16-66.34 51.15-42.69-65-14.64-1.05-2.62c-19.82-0.49-38.94-1.55-57.05-3.1l-0.7 1.17z" fill="#FFC000" p-id="3270"></path><path d="M430.16 343.55c18.11 1.55 37.22 2.61 57.05 3.1 8.48 0.21 17.08 0.32 25.79 0.32 134.46 0 243.46-25.74 243.46-57.49v-88.6c0 19.26-40.14 36.29-101.69 46.72-0.04 0.01-0.09 0.02-0.13 0.02-16.96 2.87-35.52 5.24-55.34 7.01-0.23 0.02-0.46 0.05-0.7 0.06-6.17 0.55-12.48 1.03-18.88 1.47-0.79 0.05-1.57 0.1-2.37 0.16-6.18 0.4-12.45 0.74-18.82 1.02-0.97 0.05-1.94 0.09-2.9 0.13-6.4 0.26-12.87 0.48-19.42 0.63-0.78 0.02-1.58 0.02-2.36 0.04-6.88 0.14-13.81 0.23-20.83 0.23-7.02 0-13.96-0.09-20.83-0.23-0.79-0.02-1.58-0.02-2.37-0.04-6.56-0.14-13.03-0.36-19.42-0.63-0.97-0.04-1.95-0.08-2.92-0.13-6.36-0.28-12.63-0.63-18.81-1.02-0.8-0.06-1.59-0.11-2.39-0.16-6.39-0.44-12.69-0.91-18.86-1.46-0.25-0.02-0.48-0.05-0.73-0.07-19.8-1.78-38.35-4.15-55.29-7.01-0.06-0.02-0.13-0.02-0.2-0.03-61.53-10.44-101.66-27.47-101.66-46.72v88.6c0 24.9 66.95 46.08 160.62 54.08z m262.73-85.17c11.95 0 21.64 9.68 21.64 21.64 0 11.95-9.69 21.64-21.64 21.64-11.95 0-21.64-9.68-21.64-21.64 0-11.95 9.69-21.64 21.64-21.64z" fill="#BD8DF9" p-id="3271"></path><path d="M467.47 257.36c-6.36-0.28-12.63-0.63-18.81-1.02 6.18 0.39 12.45 0.73 18.81 1.02zM446.27 256.18c-6.39-0.44-12.69-0.91-18.86-1.46 6.18 0.55 12.47 1.02 18.86 1.46zM489.81 258.11zM371.2 247.61c-5.67-0.97-11.16-1.98-16.46-3.05 39.04-14.77 95.48-24.05 158.26-24.05 62.77 0 119.21 9.28 158.25 24.05-5.3 1.07-10.8 2.09-16.48 3.05 61.55-10.43 101.69-27.46 101.69-46.72 0-31.75-109-57.48-243.46-57.48s-243.46 25.73-243.46 57.48c0 19.25 40.13 36.28 101.66 46.72zM426.69 254.65c-19.79-1.78-38.35-4.14-55.29-7.01 16.94 2.86 35.49 5.23 55.29 7.01zM598.59 254.71c-6.17 0.55-12.48 1.03-18.88 1.47 6.4-0.44 12.71-0.91 18.88-1.47zM654.63 247.64c-16.95 2.87-35.54 5.24-55.34 7.01 19.82-1.78 38.38-4.15 55.34-7.01zM577.34 256.34c-6.18 0.4-12.46 0.74-18.82 1.02 6.37-0.29 12.64-0.63 18.82-1.02zM513 258.38c-7.02 0-13.96-0.09-20.83-0.23 6.87 0.15 13.81 0.23 20.83 0.23zM555.62 257.49zM533.83 258.15c-6.87 0.14-13.81 0.23-20.83 0.23 7.02 0 13.96-0.08 20.83-0.23z" fill="#995BE3" p-id="3272"></path><path d="M513 220.51c-62.78 0-119.21 9.28-158.26 24.05 5.29 1.07 10.79 2.08 16.46 3.05l0.2 0.03c16.94 2.87 35.5 5.23 55.29 7.01 0.25 0.02 0.48 0.05 0.73 0.07 6.17 0.55 12.47 1.02 18.86 1.46 0.8 0.05 1.59 0.1 2.39 0.16 6.17 0.4 12.45 0.74 18.81 1.02 0.97 0.05 1.95 0.09 2.92 0.13 6.39 0.26 12.86 0.48 19.42 0.63 0.78 0.02 1.58 0.02 2.37 0.04 6.87 0.14 13.8 0.23 20.83 0.23 7.02 0 13.96-0.09 20.83-0.23 0.78-0.02 1.58-0.02 2.36-0.04a929.115 929.115 0 0 0 22.32-0.76c6.36-0.28 12.65-0.63 18.82-1.02 0.79-0.06 1.58-0.11 2.37-0.16 6.4-0.44 12.71-0.91 18.88-1.47l0.7-0.06c19.81-1.78 38.39-4.15 55.34-7.01 0.05-0.01 0.09-0.02 0.13-0.02 5.68-0.96 11.18-1.98 16.48-3.05-39.04-14.78-95.48-24.06-158.25-24.06z" fill="#5A21A1" p-id="3273"></path><path d="M692.89 301.66c11.95 0 21.64-9.68 21.64-21.64s-9.69-21.64-21.64-21.64c-11.95 0-21.64 9.68-21.64 21.64s9.69 21.64 21.64 21.64z" fill="#FFFFFF" p-id="3274"></path><path d="M729.93 379l-7.41 66.22-58.75 31.44 60.68 27.5 11.75 65.58 44.91-49.21 66 9.11-32.92-57.93 7.26-14.99 0.5-1.03-14.06-36.68-0.83 0.17-29.09 5.98zM268.83 601.62l58.61-31.7-60.81-27.25-12.03-65.52-44.7 49.4-30.13-4.01-13.28 34.63 10.55 18.37-28.78 60.08 65.2-13.71 48.25 45.95zM516.22 621.9l-40.04-53.25-17.92 64.17-63.02 21.64 55.5 36.86 1.11 66.61 52.2-41.39 63.7 19.55-23.23-62.45 38.27-54.54zM796.37 758.2l-0.74-66.63-52.43 41.12-63.59-19.88 22.9 62.58-38.56 54.33 66.58-2.44 7.35 9.88c16.73-5.63 33.5-11.63 49.87-17.74l0.79-2.77 49.6-16.72c4.32-1.74 8.55-3.44 12.7-5.13l-54.47-36.6zM334.13 743.17l-50.33 43.66-64.5-16.71 20.97 49.56c39.64 14.75 81.72 28.94 119.14 38.47l35.83-14.1-57.08-34.38-4.03-66.5z" fill="#FFC000" p-id="3275"></path></svg>