<?xml version="1.0" standalone="no"?><!DOCTYPE svg PUBLIC "-//W3C//DTD SVG 1.1//EN" "http://www.w3.org/Graphics/SVG/1.1/DTD/svg11.dtd">

<svg t="1599735494594" class="icon" viewBox="0 0 1024 1024" version="1.1" xmlns="http://www.w3.org/2000/svg" p-id="3820" xmlns:xlink="http://www.w3.org/1999/xlink" width="200" height="200">


<defs><style type="text/css"></style></defs><path d="M960.65 738.15c-0.01-0.09 0.02-0.18 0.01-0.26l-0.28-3.89c0.01-0.32 0.01-0.69 0.02-1.01 0.1-3.18 0.14-6.57 0.16-10.2 0.01-0.27 0.02-0.52 0.02-0.8v-0.81l-0.01-1.1v-0.02l-0.02-2.43v-0.13c-0.01-1.98-0.03-4.02-0.05-6.06l-0.02-2.11-0.07-2.37-0.01-0.26c0-0.2-0.02-1.03-0.04-1.78-0.01-0.16-0.01-0.31-0.01-0.31l-0.03-0.93c-0.05-1.63-0.19-5.64-0.3-8.9-0.05-1.25-0.08-2.44-0.13-3.71l-0.04-0.88c0-0.05-0.01-0.19-0.01-0.19 0-0.02-0.01-0.13-0.01-0.23-0.01-0.07-0.01-0.13-0.01-0.19 0-0.03-0.01-0.24-0.03-0.41 0-0.03 0.01-0.07 0.01-0.1l-0.39-8.39-0.01-0.19-0.27-4.47c-0.16-2.82-0.47-8.03-0.67-11.19l-0.24-3.38v-0.01l-0.03-0.5c-0.14-1.87-0.29-4.15-0.46-6.35l-0.15-2.1c0-0.01-0.01-0.02-0.01-0.03-0.07-0.88-0.12-1.67-0.17-2.4-0.01-0.02 0-0.05 0-0.07 0-0.05-0.22-2.73-0.45-5.6v-0.06l-0.21-2.59c-0.2-2.47-0.37-4.54-0.37-4.54 0-0.02-0.01-0.04-0.01-0.06-0.14-1.65-0.26-3.13-0.36-4.33v-0.07l-0.11-1.15v-0.03s-0.9-10.11-1.4-15.5c-0.01-0.04 0-0.08 0-0.12l-1.28-13.19c0-0.04-0.02-0.07-0.03-0.11l-0.39-4.04v-0.08l-0.13-1.28-0.08-0.82s-0.31-2.95-0.69-6.6l-0.56-5.33c0-0.03-0.02-0.05-0.02-0.08-0.13-1.22-0.25-2.38-0.37-3.47 0-0.04 0.01-0.07 0-0.11l-1.67-15.12c0-0.01-0.01-0.02-0.01-0.03l-0.29-2.6v-0.07l-0.16-1.37-0.16-1.46-1.02-8.81-0.48-4.19c0-0.01-0.01-0.02-0.01-0.03l-0.25-2.12v-0.05l-0.15-1.26-0.22-1.87-0.83-6.89-0.01-0.08-0.02-0.21-0.77-6.41c0-0.02-0.02-0.05-0.02-0.07l-0.12-1.01v-0.08l-0.36-2.92-0.08-0.67-0.12-0.96c-3.45-27.9-7.15-55.69-10.79-81.83-0.07-0.48-0.14-1-0.2-1.48 0-0.02-0.01-0.03-0.01-0.05-11.42-81.8-22.19-147.04-22.33-147.9-1.52-9.17-9.45-15.9-18.75-15.9H642.8c-5.92 0-11.51 2.76-15.1 7.46-0.08 0.1-9.25 12.09-23.66 29.92-0.01 0.01-0.02 0.02-0.02 0.03l-5.65 6.95c-4.04 4.96-8.41 10.25-13.03 15.78-0.01 0-8.09 9.62-8.09 9.62l-0.01 0.01c-10.11 11.94-19.95 23.23-29.27 33.58-4.74 5.27-9.56 10.52-14.4 15.71l0.02 0.02c-0.07 0.07-0.16 0.12-0.23 0.2-0.05 0.06-0.27 0.29-0.43 0.46-4.59 4.9-9.22 9.75-14.29 14.92l-0.04 0.04c-11.58 11.81-22.25 21.94-31.72 30.12l-0.01 0.01c-2.01 1.73-3.99 3.41-5.92 5a77.822 77.822 0 0 1-5.16 3.86c-0.18 0.11-0.82 0.52-0.99 0.64-1.77 1.19-3.59 2.37-5.12 3.27-0.01 0-0.02 0-0.02 0.01-0.08 0.04-0.24 0.13-0.38 0.21-0.19 0.11-0.38 0.21-0.47 0.27-4.63 2.69-9.84 5.36-15.49 7.94-46.4 21.17-122.27 36.82-189.21 50.64-51.38 10.6-99.92 20.62-129.85 32.05-41.12 15.7-65 59.7-69.08 127.24 0 0.04-0.02 0.08-0.02 0.12l-0.07 1.27c0 0.02-0.01 0.05-0.01 0.07l-0.12 2.64-0.12 2.49-0.05 1.6c0 0.05-0.02 0.1-0.02 0.15l-0.16 5.58c0 0.06 0.02 0.12 0.02 0.18-0.02 0.45-0.02 0.79-0.02 0.79-0.08 4.95-0.06 9.99 0.06 15.08V701.79c0.11 5.01 0.33 9.7 0.58 13.99v0.02c0 0.01 0.01 0.08 0.01 0.11v0.05l0.27 3.99c0 0.04 0.02 0.09 0.02 0.13 0.02 0.31 0.04 0.61 0.07 0.91 0 0.05-0.01 0.09-0.01 0.14l0.23 3.06 0.21 2.23c0.01 0.08-0.01 0.15 0 0.23l0.17 1.83c0.01 0.09 0.04 0.18 0.06 0.27l0.15 1.6c0.01 0.11-0.01 0.22 0 0.33l0.11 1.11c0.01 0.11 0.05 0.21 0.07 0.32 0.15 1.61 0.27 2.86 0.27 2.86 0.79 6.97 2.63 23.29 19.7 23.29h855.13c5.28 0 10.32-2.19 13.91-6.06 3.26-3.5 4.97-8.1 4.99-12.85 0.03-0.03 0.07-0.07 0.09-0.1 0 0 0.02-0.06-0.05-1.1z" p-id="3821"></path><path d="M546.8 408.11c0.21-0.23 0.43-0.46 0.65-0.69-0.21 0.23-0.43 0.46-0.65 0.69zM485.42 465.47c0.33-0.22 0.69-0.43 1.01-0.65-0.32 0.22-0.68 0.43-1.01 0.65zM478.36 469.9c0.16-0.09 0.33-0.18 0.49-0.27-0.16 0.09-0.33 0.18-0.49 0.27zM83.83 678.84zM85.12 726.47c-0.06-0.62-0.11-1.24-0.17-1.9 0.05 0.66 0.1 1.28 0.17 1.9zM85.75 732.83zM83.62 685.71zM85.44 729.91c-0.03-0.33-0.07-0.67-0.1-1.02 0.04 0.35 0.07 0.68 0.1 1.02zM599.2 348.59l0.72-0.87-0.72 0.87zM84.48 718.55zM84.78 722.65c-0.07-0.91-0.15-1.83-0.21-2.8 0.06 0.98 0.14 1.89 0.21 2.8zM941.35 734.36c0.15-4.13 0.2-8.56 0.21-13.18v0.3c-0.02 4.5-0.07 8.82-0.22 12.86 0.35 4.86 0.35 4.91 0.35 4.91h0.01l-0.35-4.89zM938.33 649.94c0.03 0.4 0.07 0.81 0.1 1.21-0.31-4.06-0.65-8.23-1-12.4 0.2 2.48 0.4 4.93 0.6 7.38 0.1 1.25 0.21 2.55 0.3 3.81zM613.09 331.76c0.54-0.66 1.05-1.29 1.58-1.94-0.52 0.65-1.04 1.29-1.58 1.94zM927.67 544.12c0.12 1.03 0.25 2.06 0.37 3.09-0.66-5.54-1.32-11.08-2-16.63 0.27 2.2 0.52 4.39 0.79 6.59l0.84 6.95zM939.5 666.07c0.29 4.45 0.55 8.77 0.78 13.03 0.05 0.78 0.11 1.6 0.15 2.37 0.14 2.71 0.25 5.29 0.36 7.92l0.03 0.51c-0.51-11.3-1.24-23.34-2.19-36.01 0.22 2.98 0.43 5.9 0.63 8.81 0.07 1.12 0.16 2.27 0.24 3.37zM936.96 633.16c0.05 0.5 0.1 1.01 0.14 1.5-0.35-4.1-0.74-8.28-1.12-12.46 0.21 2.32 0.42 4.62 0.62 6.92 0.12 1.34 0.24 2.71 0.36 4.04zM83.61 686.57zM933.67 598.3c0.07 0.7 0.15 1.42 0.22 2.11-0.47-4.61-0.96-9.26-1.45-13.93 0.24 2.23 0.46 4.44 0.69 6.66 0.18 1.72 0.37 3.45 0.54 5.16zM935.39 615.93c0.06 0.59 0.12 1.19 0.18 1.77-0.41-4.33-0.84-8.71-1.28-13.12 0.22 2.26 0.43 4.5 0.66 6.74 0.15 1.54 0.31 3.09 0.44 4.61z" fill="#00BBF9" p-id="3822"></path><path d="M914.39 441.86c1.2 8.63 2.41 17.49 3.63 26.45h0.01c0.2 1.45 0.38 2.93 0.58 4.38 0.37 2.73 0.74 5.47 1.1 8.23 0.41 3.04 0.81 6.08 1.21 9.14 0.4 3.12 0.81 6.24 1.21 9.38 0.37 2.84 0.74 5.68 1.1 8.53 0.44 3.45 0.87 6.91 1.3 10.37 0.32 2.5 0.63 5 0.94 7.51 0.15 1.19 0.29 2.37 0.44 3.56-14.49-118.47-33.78-235.02-33.78-235.02H642.8s-9.3 12.18-23.98 30.33c0.36-0.44 0.75-0.93 1.1-1.36l88.01 88.01c8.59 8.59 8.59 22.52 0 31.11s-22.51 8.59-31.11 0l-85.06-85.06c-9.26 10.93-19.28 22.5-29.67 34.03l82.88 82.88c8.59 8.59 8.58 22.52 0 31.11-8.59 8.59-22.52 8.59-31.12 0L532 423.57c0.06-0.06 0.11-0.12 0.17-0.18-11.18 11.4-22.29 22.06-32.87 31.2l82.71 82.71c8.6 8.59 8.59 22.52 0 31.11-8.58 8.59-22.51 8.59-31.11 0l-89.7-89.7c-84.39 38.5-253.42 57.67-320.17 83.16-41.97 16.02-54.32 67.47-56.9 110.87h531.6c37.74-128.16 156.09-223.4 298.66-230.88zM941.48 709.65v0.14c0.06 3.07 0.06 5.94 0.07 8.83 0 0.46 0.02 0.97 0.02 1.42 0-4.32-0.06-8.85-0.17-13.55 0.01 0.08 0.01 0.14 0.01 0.22 0.01 0.97 0.05 1.99 0.07 2.94zM941.34 704.73c0 0.18 0.02 0.38 0.02 0.57-0.12-4.9-0.3-9.98-0.54-15.25 0.01 0.14 0.02 0.27 0.02 0.41 0.21 4.92 0.37 9.67 0.5 14.27zM931.79 580.41l0.27 2.42c-0.53-4.98-1.09-9.98-1.65-15 0.25 2.24 0.49 4.46 0.74 6.69 0.21 1.97 0.42 3.94 0.64 5.89zM929.79 562.37c0.11 0.92 0.21 1.85 0.32 2.76-0.59-5.22-1.19-10.46-1.82-15.71 0.25 2.14 0.49 4.26 0.74 6.4 0.25 2.19 0.51 4.37 0.76 6.55z" fill="#00BBF9" p-id="3823"></path><path d="M939.5 666.07c0.15 2.27 0.26 4.43 0.4 6.66 0.01 0.14 0.02 0.27 0.02 0.42 0.11 1.99 0.25 4.01 0.35 5.96-0.23-4.27-0.48-8.59-0.77-13.04zM918.01 468.31c-1.21-8.95-2.42-17.82-3.63-26.45-142.57 7.48-260.91 102.72-298.66 230.87h30.83c36.35-114.09 143.28-198.18 271.46-204.42zM940.75 688.87l0.03 0.52c-0.11-2.63-0.22-5.21-0.36-7.92 0.13 2.54 0.22 4.93 0.33 7.4zM933.13 593.14c-0.23-2.22-0.45-4.43-0.69-6.66-0.13-1.22-0.25-2.43-0.38-3.65l-0.27-2.42c0.46 4.28 0.9 8.51 1.34 12.73zM939.26 662.71c-0.2-2.91-0.41-5.84-0.63-8.81-0.07-0.93-0.12-1.82-0.2-2.75-0.02-0.4-0.07-0.81-0.1-1.21 0.34 4.33 0.64 8.56 0.93 12.77zM940.85 690.79c0.2 4.62 0.35 9.08 0.47 13.41 0 0.17 0.01 0.36 0.02 0.53-0.12-4.59-0.29-9.35-0.51-14.26 0.01 0.11 0.01 0.21 0.02 0.32zM941.48 709.65c-0.02-0.94-0.06-1.97-0.08-2.92v0.22c0.02 0.93 0.07 1.93 0.08 2.85v-0.15zM923.22 507.97c0.44 3.45 0.88 6.91 1.3 10.37-0.44-3.47-0.86-6.92-1.3-10.37zM918.6 472.69zM920.91 490.05c0.4 3.11 0.81 6.24 1.21 9.38-0.4-3.13-0.81-6.26-1.21-9.38zM936.6 629.11c-0.21-2.3-0.41-4.6-0.62-6.92-0.14-1.51-0.26-2.98-0.4-4.49-0.06-0.59-0.12-1.19-0.18-1.77 0.42 4.45 0.81 8.82 1.2 13.18zM938.03 646.12c-0.2-2.45-0.39-4.9-0.6-7.38-0.11-1.37-0.22-2.7-0.34-4.08-0.04-0.49-0.09-1-0.14-1.5 0.39 4.39 0.74 8.68 1.08 12.96zM926.83 537.17c-0.27-2.2-0.52-4.39-0.79-6.59-0.05-0.39-0.09-0.78-0.14-1.17-0.15-1.19-0.3-2.37-0.44-3.56 0.46 3.77 0.92 7.55 1.37 11.32zM934.95 611.33c-0.22-2.24-0.43-4.48-0.66-6.74-0.14-1.4-0.27-2.77-0.41-4.17-0.07-0.7-0.15-1.41-0.22-2.11 0.45 4.38 0.88 8.71 1.29 13.02zM931.14 574.53c-0.25-2.23-0.48-4.45-0.74-6.69-0.1-0.9-0.2-1.8-0.29-2.7-0.11-0.92-0.21-1.84-0.32-2.76 0.46 4.06 0.91 8.11 1.35 12.15zM929.03 555.82c-0.25-2.13-0.48-4.26-0.74-6.4-0.08-0.74-0.16-1.47-0.25-2.21-0.12-1.03-0.25-2.06-0.37-3.09 0.46 3.9 0.91 7.8 1.36 11.7zM941.34 734.36l0.35 4.89s0-0.05-0.35-4.91v0.02z" fill="#FFFFFF" p-id="3824"></path><path d="M940.27 679.1c-0.11-1.95-0.24-3.97-0.35-5.96 0.32 5.39 0.6 10.62 0.83 15.72-0.11-2.46-0.2-4.86-0.34-7.39-0.03-0.77-0.09-1.59-0.14-2.37zM939.26 662.71c-0.29-4.2-0.59-8.43-0.92-12.77-0.09-1.25-0.2-2.55-0.3-3.82-0.34-4.28-0.69-8.57-1.07-12.96-0.11-1.33-0.24-2.7-0.36-4.05-0.38-4.36-0.78-8.74-1.2-13.18-0.14-1.52-0.29-3.07-0.44-4.6-0.42-4.32-0.84-8.65-1.29-13.03-0.17-1.71-0.36-3.44-0.54-5.16-0.43-4.23-0.88-8.46-1.34-12.73-0.21-1.96-0.42-3.92-0.65-5.89-0.44-4.04-0.89-8.09-1.35-12.15-0.25-2.18-0.51-4.37-0.76-6.56-0.45-3.9-0.9-7.8-1.36-11.7-0.28-2.32-0.56-4.63-0.83-6.95-0.46-3.77-0.92-7.55-1.37-11.32-0.31-2.51-0.62-5.01-0.94-7.51-0.42-3.46-0.86-6.92-1.3-10.37-0.36-2.85-0.73-5.69-1.1-8.53-0.4-3.14-0.81-6.27-1.21-9.38-0.4-3.06-0.8-6.1-1.21-9.14-0.36-2.75-0.73-5.5-1.1-8.23-0.2-1.45-0.38-2.93-0.58-4.38h-0.01c-128.19 6.24-235.12 90.33-271.45 204.42H939.9c-0.14-2.23-0.25-4.39-0.4-6.66-0.08-1.09-0.17-2.24-0.24-3.35zM941.34 734.36v-0.02c0.15-4.04 0.2-8.36 0.22-12.86 0 4.52-0.07 8.84-0.22 12.88zM941.32 704.2zM941.39 706.94c0.1 4.05 0.14 7.91 0.15 11.68-0.01-2.9-0.01-5.77-0.07-8.83-0.01-0.92-0.05-1.92-0.08-2.85z" fill="#00A1D7" p-id="3825"></path><path d="M941.57 721.48v-0.3c0-0.36 0-0.76-0.01-1.13 0-0.46-0.02-0.97-0.02-1.42-0.01-3.77-0.05-7.63-0.15-11.68v-0.22c0-0.08 0-0.15-0.01-0.22l-0.03-1.2c0-0.19-0.02-0.39-0.02-0.57-0.01-0.17-0.02-0.36-0.02-0.53-0.12-4.34-0.28-8.79-0.47-13.41-0.01-0.11-0.01-0.21-0.02-0.32 0-0.14-0.01-0.27-0.02-0.41v-0.15l-0.03-0.51-0.03-0.52c-0.24-5.1-0.52-10.34-0.83-15.72-0.01-0.14-0.02-0.27-0.02-0.42H84.12c-0.02 0.37-0.03 0.73-0.06 1.1a454 454 0 0 0-0.24 5.02l-0.06 1.54c-0.07 1.79-0.11 3.58-0.16 5.33 0 0.29-0.01 0.57-0.01 0.86-0.18 10.41 0.13 20.01 0.61 28.07 0.01 0.04 0.01 0.09 0.01 0.13 0.08 1.31 0.16 2.55 0.25 3.78 0.02 0.43 0.06 0.88 0.09 1.3 0.07 0.97 0.14 1.89 0.21 2.8 0.06 0.65 0.11 1.3 0.16 1.91 0.06 0.66 0.11 1.28 0.17 1.9 0.07 0.85 0.15 1.64 0.23 2.42 0.03 0.35 0.07 0.69 0.1 1.02 0.11 1.06 0.21 2.03 0.31 2.92 0.46 4.06 0.8 6.42 0.8 6.42H941.7l-0.35-4.89c0.14-4.06 0.21-8.38 0.22-12.9z" fill="#FFFFFF" p-id="3826"></path><path d="M707.94 442.48c8.59-8.59 8.59-22.52 0-31.11l-88.01-88.01c-0.35 0.43-0.74 0.92-1.1 1.36-1.34 1.66-2.73 3.36-4.15 5.12-0.53 0.65-1.04 1.28-1.58 1.94-4.09 5.01-8.5 10.36-13.18 15.95l-0.72 0.87c-2.41 2.89-4.89 5.83-7.43 8.83l85.06 85.06c8.59 8.58 22.52 8.58 31.11-0.01zM613.86 505.44c8.59 8.59 22.52 8.59 31.12 0 8.58-8.59 8.59-22.52 0-31.11l-82.88-82.88c-4.82 5.36-9.72 10.7-14.65 15.97-0.21 0.23-0.43 0.46-0.65 0.69-4.86 5.19-9.75 10.3-14.63 15.27-0.06 0.06-0.11 0.12-0.17 0.18l81.86 81.88zM582.01 568.4c8.59-8.59 8.6-22.51 0-31.11l-82.71-82.71c-2.12 1.83-4.22 3.61-6.29 5.32a96.293 96.293 0 0 1-6.58 4.92c-0.32 0.22-0.68 0.43-1.01 0.65-2.1 1.41-4.26 2.8-6.57 4.16-0.16 0.09-0.34 0.18-0.49 0.27-5.23 3.04-10.96 5.97-17.15 8.8l89.7 89.7c8.59 8.59 22.52 8.59 31.1 0z" fill="#D0F0FF" p-id="3827"></path></svg>