<?xml version="1.0" standalone="no"?><!DOCTYPE svg PUBLIC "-//W3C//DTD SVG 1.1//EN" "http://www.w3.org/Graphics/SVG/1.1/DTD/svg11.dtd"><svg t="1599735478514" class="icon" viewBox="0 0 1024 1024" version="1.1" xmlns="http://www.w3.org/2000/svg" p-id="3404" xmlns:xlink="http://www.w3.org/1999/xlink" width="200" height="200"><defs><style type="text/css"></style></defs><path d="M765.57 298.95c-49.62-68.22-127.76-76.91-183.58-75.67-28.96 0.65-63.57 26.33-90.2 50.9-10.27 52.02 0.27 126.85 68.24 232.67 166.67 16.35 231.79-43.23 260.14-92 0-0.21-0.02-0.33-0.02-0.54 0-35.97-4.96-47.14-54.58-115.36z m-194.74 190.2c-49.93-79.94-70.72-149-61.83-205.46 29.76-26.62 55.69-41.41 73.41-41.81 2.93-0.06 5.92-0.1 8.97-0.1 73.76 0 125.81 22.28 159.15 68.12 46.94 64.54 50.72 74.1 50.99 99.86-38.71 61.99-116.52 88.85-230.69 79.39zM827.17 401.63c0.12-0.25 0.24-0.51 0.36-0.76l0.04-0.95c-0.13 0.58-0.26 1.17-0.4 1.71z" p-id="3405"></path><path d="M878.04 444.27c21.87-108.97 14-158.56-36.38-230.38l-0.54-0.79c-2.12-3.02-4.3-6.08-6.57-9.21l-0.01 0.01c-30.54-42.42-68.14-88.02-128.26-96.5l-2.78-0.57c-29.35-5.94-51.23-8.6-70.98-8.6-52.25 0-95.68 18.03-165.96 68.89-93.48 67.64-128.5 175.06-130.98 261.48l-17.65-5.9-81.86-42.58 0.23 8.88-109.68-41.52-2.05 42.61-3.56-1.19-0.37 40.86-1.85-0.62-0.37 40.44-1.74-0.58-0.58 63.84 0.07 0.02-0.38 39.87 0.44 0.15-0.41 39.46 128.88 44.14 9.08 3.54c3.27 1.26 79.26 30.55 177.34 43.37 48.71 72.32 97.4 119.96 97.79 120.34l9.06 8.85 1.4-0.6 109.57 96.31 32.86-19.25 0.33 0.29 32.63-19.07 0.04 0.03 55.12-32.2-1.38-1.24 34.07-19.91-1.46-1.29 34.5-20.16-2.2-1.95 32.95-19.26-77.04-68.65 5.74-2.44-74.97-58.46-3.92-4.19c84.28-48.62 144.13-128.04 161.83-216.27zM688.99 656.08l19.72 21.13 53.43 41.67-3.87 1.64 79.56 70.91-24.54 14.35-83.31-73.22-8.66 3.68 85.75 76.4-24.56 14.35L693 748.3l-10.34 4.4 91.38 81.4-24.55 14.36-95.21-83.7-9.78 4.16 96.85 86.31-24.55 14.35-100.74-88.57-8.12 3.46 100.76 89.79-24.56 14.36-104.67-92.04-8.4 3.58 104.41 93.04-24.54 14.36-105.43-92.66-2.13-2.97-1.66 0.7-1-0.97c-0.94-0.92-51.39-50.53-99.88-124.05-100.83-12.13-180.93-43.32-180.93-43.32l-0.01-0.45-127.07-43.52 0.29-28.43 126 42.2-0.27-10.23-126.07-43.15 0.27-28.45 125.01 41.88-0.28-10.63-124.71-42.69 0.26-28.44L257 533.8l-0.3-11.22-121.53-41.62 0.26-28.44 120.49 40.37-0.31-11.68-118.22-40.47 0.26-28.44 117.17 39.25-0.2-7.74L141 399.88l1.37-28.4 111.5 42.21-0.15-5.38 57.61 29.97 41.17 13.74c-3.6-82.82 26.4-200.64 123.96-271.24 67.02-48.49 107.86-65.69 156.07-65.69 18.57 0 39.43 2.56 67.62 8.27l-0.01 0.15c56.36 6.13 91.8 50.06 120.79 90.34 0-0.01-0.01-0.04-0.01-0.04 2.22 3.05 4.34 6.03 6.41 8.98 0.09 0.12 0.19 0.25 0.28 0.38 0.01 0.02 0.02 0.04 0.04 0.07 45.94 65.5 55.88 108.04 33.87 217.69-20.46 101.88-95.49 176.79-172.53 215.15z" p-id="3406"></path><path d="M133.12 571.89l-0.29 28.43 127.07 43.52-0.78-29.75zM133.05 532.25l-0.27 28.46 126.07 43.14-0.78-29.72zM133.34 492.37l-0.26 28.44 124.71 42.69-0.78-29.71zM135.45 452.52l-0.26 28.43 121.53 41.62-0.78-29.69zM137.68 412.29l-0.27 28.44 118.22 40.47-0.78-29.66zM142.36 371.49L141 399.88l113.65 43.92-0.79-30.1zM545.51 814.9l105.42 92.67 24.54-14.37-104.41-93.04-27.68 11.78zM684.13 888.63l24.56-14.37-100.75-89.78-28.48 12.11zM716.8 869.58l24.55-14.34-96.85-86.32-28.44 12.1zM749.49 848.46l24.55-14.36-91.38-81.4-28.38 12.07zM782.51 826.99l24.56-14.34-85.75-76.4L693 748.3zM813.29 805.79l24.55-14.35-79.57-70.91-28.29 12.04z" fill="#FFE691" p-id="3407"></path><path d="M840.68 283.31c-6.85-38.42-19.54-68.92-19.76-69.45-28.98-40.28-64.42-84.21-120.79-90.34l-0.34 4.03c-1.02 0.04-103.11 3.83-152.41 51.51-15.42 14.91-45.5 44.06-55.59 95.12 26.63-24.56 61.24-50.25 90.2-50.9 55.82-1.24 133.96 7.45 183.58 75.67 49.62 68.22 54.57 79.39 54.57 115.36 0 0.22 0.02 0.33 0.02 0.54 2.63-4.53 4.95-8.95 7.01-13.22 0.13-0.54 0.27-1.13 0.4-1.7l-0.04 0.95c4.35-9.16 7.54-17.56 9.98-24.46 2.6-7.36 4.39-15.08 5.58-22.98l1.42-13.36c1.25-19.15-0.63-38.82-3.83-56.77zM827.59 223.18c-0.09-0.12-0.19-0.25-0.28-0.38 0.1 0.15 0.21 0.29 0.31 0.45a0.488 0.488 0 0 0-0.03-0.07z" fill="#CF9C00" p-id="3408"></path><path d="M390.02 678.09a854.196 854.196 0 0 1-62.49-13.18l-0.64-220.31c6.73 2.24 15.2 5.07 25.65 8.56-0.02-0.38-0.03-0.76-0.04-1.13l-41.17-13.74-57.61-29.97 0.15 5.38 0.79 30.1 0.2 7.74 0.79 29.66 0.31 11.68 0.78 29.69 0.3 11.22 0.78 29.71 0.28 10.63 0.79 29.73 0.27 10.23 0.78 29.76 0.01 0.45s80.11 31.19 180.93 43.32c-16.89-25.61-33.52-54.13-47.76-84.51l-3.1 74.98zM827.62 223.25c-0.1-0.16-0.21-0.31-0.31-0.45-2.07-2.95-4.19-5.93-6.41-8.98l0.01 0.04c0.22 0.53 12.91 31.03 19.76 69.45 3.2 17.95 5.08 37.62 3.84 56.76l-1.42 13.36c-1.19 7.9-2.98 15.63-5.58 22.98-2.44 6.9-5.63 15.31-9.98 24.46-0.12 0.25-0.24 0.51-0.36 0.76-2.06 4.27-4.38 8.69-7.01 13.22-28.35 48.77-93.47 108.35-260.14 92a836.66 836.66 0 0 0 28.52 41.56l100.44 107.67c77.04-38.36 152.07-113.27 172.5-215.14 22.02-109.65 12.09-152.19-33.86-217.69z" fill="#FFC600" p-id="3409"></path><path d="M327.53 664.91c18.58 4.64 39.72 9.27 62.49 13.18l3.07-74.99c-21.08-45-36.9-94.08-40.31-143.85-0.14-1.97-0.15-4.07-0.25-6.09-10.44-3.49-18.92-6.32-25.65-8.56l0.65 220.31z" fill="#FFF898" p-id="3410"></path><path d="M560.03 506.86c-67.97-105.82-78.51-180.65-68.24-232.67 10.09-51.06 40.17-80.21 55.59-95.12 49.3-47.68 151.38-51.47 152.41-51.51l0.34-4.03 0.01-0.15c-28.19-5.71-49.05-8.27-67.62-8.27-48.22 0-89.05 17.2-156.07 65.69-97.55 70.58-127.56 188.4-123.96 271.23 0.01 0.38 0.02 0.76 0.04 1.13 0.09 2.02 0.11 4.12 0.25 6.09 3.41 49.77 19.22 98.84 40.31 143.85 14.24 30.38 30.87 58.9 47.76 84.51 48.48 73.52 98.93 123.13 99.88 124.05l1 0.97 1.66-0.7 27.68-11.77 8.4-3.58 28.48-12.11 8.12-3.46 28.44-12.09 9.78-4.16 28.38-12.06 10.34-4.4 28.32-12.05 8.66-3.68 28.29-12.03 3.87-1.64-53.43-41.67L689 656.1 588.55 548.42a836.66 836.66 0 0 1-28.52-41.56z m147.14 171.8l50.85 39.7-215.83 91.79s-46.89-45.63-93.83-114.7c-0.57-0.84-1.15-1.63-1.73-2.48l0.03-0.01c-43.15-64.02-85.86-147.65-91.77-233.84-6.27-91.58 28.53-208.39 122.8-276.6 94.27-68.22 136.45-74.42 222.03-57.06 0 0-103.34 3.28-153.81 52.1-37.46 36.22-128.23 135.74 36.03 365.19l0.03-0.02c1.68 2.36 3.23 4.64 4.97 7.03 6.37 6.82 12.33 13.21 18.02 19.33l-0.01 0.01c102.14 109.48 102.22 109.56 102.22 109.56z" fill="#D3A100" p-id="3411"></path><path d="M410.91 634.01l171.03-91.28c-164.25-229.45-73.49-328.97-36.03-365.19 50.48-48.82 153.81-52.1 153.81-52.1-85.59-17.36-127.76-11.16-222.03 57.06s-129.07 185.03-122.8 276.6c5.91 86.2 48.62 169.82 91.77 233.84l185.9-94.1c24.77 26.57 40.91 43.85 51.41 55.12l-199.5 90.17a838.365 838.365 0 0 1-36.11-48.69c46.94 69.07 93.83 114.7 93.83 114.7l215.83-91.79-50.85-39.7s-0.07-0.07-102.21-109.58L426.49 661.2a666.032 666.032 0 0 1-15.58-27.19z" fill="#FFC600" p-id="3412"></path><path d="M586.94 549.74c-1.74-2.38-3.29-4.67-4.97-7.03l-0.03 0.02-171.03 91.28c5.04 9.31 10.26 18.38 15.58 27.19l178.47-92.12 0.01-0.01c-5.7-6.12-11.66-12.51-18.03-19.33zM683.97 653.97c-10.5-11.27-26.64-28.55-51.41-55.12l-185.9 94.1-0.03 0.01c0.58 0.85 1.16 1.64 1.73 2.48a843 843 0 0 0 36.11 48.69l199.5-90.16z" fill="#FFF898" p-id="3413"></path></svg>