<?xml version="1.0" standalone="no"?><!DOCTYPE svg PUBLIC "-//W3C//DTD SVG 1.1//EN" "http://www.w3.org/Graphics/SVG/1.1/DTD/svg11.dtd"><svg t="1600243070179" class="icon" viewBox="0 0 1024 1024" version="1.1" xmlns="http://www.w3.org/2000/svg" p-id="7059" xmlns:xlink="http://www.w3.org/1999/xlink" width="200" height="200"><defs><style type="text/css"></style></defs><path d="M173.7728 544.4608c-15.9744 0-28.8768 12.3904-28.8768 27.648v89.7536c0 106.3936 83.712 194.0992 191.488 206.0288 2.4064 0.256 4.3008 2.2016 4.3008 4.5568v24.7296c0 16.2304 13.7728 29.44 30.72 29.44h334.3872c16.9984 0 30.72-13.1584 30.72-29.44v-24.7296c0-2.3552 1.8432-4.2496 4.3008-4.5568 107.8272-11.9296 191.488-99.6352 191.488-206.0288v-89.7536c0-15.2576-12.9536-27.648-28.8768-27.648H173.7728z" fill="#BC9BE0" p-id="7060"></path><path d="M154.368 203.4176l-43.4176 0.6144c-8.8064 0.1024-15.9232 8.6016-15.9232 19.0464s7.0656 18.944 15.9232 19.0464l43.4176 0.6144v-39.3216zM922.4192 192.3584l-381.0816 5.4784v50.4832l381.0816 5.4784c8.96 0.1536 16.2816-8.448 16.2816-19.0464V211.456c0-10.6496-7.3216-19.2-16.2816-19.0976zM154.368 322.1504l-43.4176 0.6144c-8.8064 0.1024-15.9232 8.6016-15.9232 19.0464s7.0656 18.944 15.9232 19.0464l43.4176 0.6144v-39.3216zM922.4192 311.0912l-381.0816 5.4784v50.4832l381.0816 5.4784c8.96 0.1536 16.2816-8.448 16.2816-19.0464v-23.296c0-10.6496-7.3216-19.2-16.2816-19.0976z" fill="#FFA750" p-id="7061"></path><path d="M154.368 258.1504h-0.2048l-43.4176-0.6144c-17.408-0.256-31.0272-15.36-31.0272-34.4064s13.6192-34.1504 31.0272-34.4064l43.4176-0.6144c4.1472 0.0512 8.0896 1.536 11.008 4.4032 2.9184 2.8672 4.5568 6.8096 4.5568 10.9568v39.3728c0 4.096-1.6384 8.0384-4.5568 10.9568-2.9184 2.7648-6.7584 4.352-10.8032 4.352zM111.616 226.816l27.392 0.4096v-8.192l-27.392 0.4096c-0.4608 0.4096-1.2288 1.6896-1.2288 3.6864s0.8192 3.2256 1.2288 3.6864zM922.624 269.1584h-0.4096l-381.0816-5.4784a15.36 15.36 0 0 1-15.1552-15.36v-50.4832a15.36 15.36 0 0 1 15.1552-15.36l381.0816-5.4784c7.8848-0.0512 15.616 3.0208 21.504 8.8064 6.6048 6.5024 10.3936 15.8208 10.3936 25.6v23.296c0 9.7792-3.7888 19.0976-10.3936 25.6-5.8368 5.7856-13.312 8.8576-21.0944 8.8576z m-365.9776-35.9424l365.4656 5.2736c0.4608-0.4608 1.1776-1.6896 1.1776-3.6864V211.456c0-1.9968-0.768-3.2256-1.1776-3.6864l-365.4656 5.2736v20.1728zM154.368 376.8832h-0.2048l-43.4176-0.6144c-17.1008-0.256-31.0272-15.6672-31.0272-34.4064 0-18.7392 13.9264-34.1504 31.0272-34.4064l43.4176-0.6144c4.1472-0.0512 8.0896 1.536 11.008 4.4032 2.9184 2.8672 4.5568 6.8096 4.5568 10.9568v39.3728c0 4.096-1.6384 8.0384-4.5568 10.9568-2.9184 2.7648-6.7584 4.352-10.8032 4.352z m-42.752-31.3344l27.392 0.4096v-8.192l-27.392 0.4096c-0.4096 0.4608-1.2288 1.6896-1.2288 3.6864 0 1.9456 0.8192 3.2256 1.2288 3.6864zM922.624 387.8912h-0.4096l-381.0816-5.4784a15.36 15.36 0 0 1-15.1552-15.36v-50.4832a15.36 15.36 0 0 1 15.1552-15.36l381.0816-5.4784c7.8848-0.1024 15.616 3.0208 21.504 8.8064 6.6048 6.5024 10.3936 15.8208 10.3936 25.6v23.296c0 9.7792-3.7888 19.0976-10.3936 25.6-5.8368 5.7344-13.312 8.8576-21.0944 8.8576z m-365.9776-35.9424l365.4656 5.2736c0.4608-0.4608 1.1776-1.6896 1.1776-3.6864V330.24c0-1.9968-0.768-3.2256-1.1776-3.6864l-365.4656 5.2736v20.1216z m365.9776-25.4976z m-0.2048-15.36z" fill="#333333" p-id="7062"></path><path d="M530.8416 94.976v45.7728s-38.3488 9.1648-38.3488 48.384v313.088h-47.9232V177.3568s-2.6112-82.3808 86.272-82.3808zM407.6544 94.976v45.7728s-38.3488 9.1648-38.3488 48.384v313.088h-47.9232V177.3568s-2.6112-82.3808 86.272-82.3808zM285.3888 94.976v45.7728s-38.3488 9.1648-38.3488 48.384v313.088h-47.9232V177.3568s-2.6624-82.3808 86.272-82.3808z" fill="#FEEE7D" p-id="7063"></path><path d="M901.632 486.8608H507.904V189.1328c0-25.856 23.9616-32.768 26.5728-33.4336 6.912-1.6384 11.776-7.8336 11.776-14.9504v-45.7728c0-8.4992-6.8608-15.36-15.36-15.36-31.6928 0-56.8832 9.3696-74.8032 27.904-27.8016 28.7232-26.88 68.608-26.8288 69.7856v309.504h-44.544V189.1328c0-25.856 23.9616-32.768 26.5728-33.4336 6.912-1.6384 11.776-7.8336 11.776-14.9504v-45.7728c0-8.4992-6.8608-15.36-15.36-15.36-31.6928 0-56.8832 9.3696-74.8032 27.904-27.8016 28.7232-26.88 68.608-26.8288 69.7856v309.504h-43.6224V189.1328c0-25.856 23.9616-32.768 26.5728-33.4336 6.912-1.6384 11.776-7.8336 11.776-14.9504v-45.7728c0-8.4992-6.8608-15.36-15.36-15.36-31.6928 0-56.8832 9.3696-74.8032 27.904-27.8016 28.672-26.88 68.608-26.8288 69.7856v309.504H125.7472c-25.3952 0-46.08 20.6848-46.08 46.08v99.6864c0 121.7536 88.832 224.6144 208.1792 242.8928v18.4832c0 26.4704 21.5552 48.0256 48.0256 48.0256h355.584c26.4704 0 48.0256-21.5552 48.0256-48.0256v-18.4832c119.296-18.2784 208.1792-121.1392 208.1792-242.8928v-99.6864c0.0512-25.3952-20.6336-46.0288-46.0288-46.0288zM459.9296 176.9472c0-0.3072-0.4096-29.0304 18.3296-48.1792 9.1136-9.3184 21.6064-15.1552 37.2224-17.3568v18.6368c-17.3056 8.1408-38.3488 26.5216-38.3488 59.0848v297.728h-17.2032V176.9472z m-123.1872 0c0-0.3072-0.4096-29.0304 18.3296-48.1792 9.1136-9.3184 21.6064-15.1552 37.2224-17.3568v18.6368c-17.3056 8.1408-38.3488 26.5216-38.3488 59.0848v297.728h-17.2032V176.9472z m-122.3168-0.1024c0-0.3072-0.3584-28.7744 18.176-47.9232 9.1648-9.4208 21.6576-15.3088 37.376-17.5616v18.6368c-17.3056 8.1408-38.3488 26.5216-38.3488 59.0848v297.728h-17.2032V176.8448z m702.5664 455.7312c0 109.2096-81.7152 201.0112-190.0032 213.5552a20.49024 20.49024 0 0 0-18.176 20.3264v27.4432c0 9.5744-7.7824 17.3056-17.3056 17.3056H335.9232c-9.5744 0-17.3056-7.7824-17.3056-17.3056v-27.4432c0-10.3936-7.8336-19.1488-18.1248-20.3264-108.3392-12.544-190.0544-104.3456-190.0544-213.5552v-99.6864c0-8.448 6.912-15.36 15.36-15.36h775.7824c8.448 0 15.36 6.912 15.36 15.36v99.6864z" fill="#333333" p-id="7064"></path></svg>