<?xml version="1.0" standalone="no"?><!DOCTYPE svg PUBLIC "-//W3C//DTD SVG 1.1//EN" "http://www.w3.org/Graphics/SVG/1.1/DTD/svg11.dtd"><svg t="1600243169940" class="icon" viewBox="0 0 1024 1024" version="1.1" xmlns="http://www.w3.org/2000/svg" p-id="817" xmlns:xlink="http://www.w3.org/1999/xlink" width="200" height="200"><defs><style type="text/css"></style></defs><path d="M515.33913 25.6a489.73913 489.73913 0 0 0-489.73913 489.73913 489.73913 489.73913 0 0 0 489.73913 489.739131 489.73913 489.73913 0 0 0 489.739131-489.739131 489.73913 489.73913 0 0 0-489.739131-489.73913z m456.347827 489.73913a456.347826 456.347826 0 0 1-456.347827 456.347827 456.347826 456.347826 0 0 1-456.347826-456.347827 456.347826 456.347826 0 0 1 456.347826-456.347826 456.347826 456.347826 0 0 1 456.347827 456.347826z" p-id="818"></path><path d="M518.455652 92.382609a422.956522 422.956522 0 0 0-422.956522 422.956521 422.956522 422.956522 0 0 0 422.956522 422.956522 422.956522 422.956522 0 0 0 422.956522-422.956522 422.956522 422.956522 0 0 0-422.956522-422.956521zM779.130435 581.676522l-80.139131 16.695652 51.2 28.93913a18.253913 18.253913 0 0 1 6.678261 23.596522 17.363478 17.363478 0 0 1-24.932174 6.90087l-51.2-28.939131 24.932174 75.909565v2.893913a17.586087 17.586087 0 0 1-12.466087 22.26087 18.253913 18.253913 0 0 1-22.260869-13.801739l-37.398261-113.530435L534.26087 547.172174v111.304348l81.697391 89.043478c1.335652 0 1.335652 1.335652 2.671304 1.335652a17.808696 17.808696 0 0 1-4.006956 24.932174 16.695652 16.695652 0 0 1-24.932174-2.671304L534.26087 712.347826v58.10087a18.253913 18.253913 0 0 1-17.808696 18.031304 17.363478 17.363478 0 0 1-18.031304-18.031304V712.347826l-55.429566 59.659131a1.335652 1.335652 0 0 1-1.335652 1.335652 17.586087 17.586087 0 1 1-24.932174-24.932174l81.697392-89.043478v-111.304348l-98.393044 55.206956-38.733913 113.530435v2.893913a17.14087 17.14087 0 0 1-22.26087 9.572174 18.476522 18.476522 0 0 1-11.130434-23.596522l26.267826-75.909565-52.535652 28.93913a16.250435 16.250435 0 0 1-23.596522-5.565217 18.031304 18.031304 0 0 1 5.565217-24.932174l51.2-28.93913-78.803478-16.695652c-1.335652 0-2.893913 0-2.893913-1.335653a16.918261 16.918261 0 0 1-12.243478-22.260869 19.812174 19.812174 0 0 1 22.260869-12.466087l120.431305 24.932174 98.170434-55.429565-98.170434-55.429566-120.431305 24.932174h-2.671304a19.589565 19.589565 0 0 1-20.925217-15.137391 18.476522 18.476522 0 0 1 16.695652-20.702609l78.803478-16.695652-51.2-28.93913a17.808696 17.808696 0 0 1-6.90087-23.596522 18.476522 18.476522 0 0 1 24.932174-6.90087l52.535652 28.939131-26.267826-76.132174v-2.671305a17.586087 17.586087 0 0 1 12.466087-22.260869 18.69913 18.69913 0 0 1 22.26087 13.801739l38.733913 113.307826 98.393043 56.765218v-111.304348l-81.697391-89.043479c-1.335652 0-1.335652 0-1.335652-1.335652a16.695652 16.695652 0 0 1 2.671304-24.932174 18.921739 18.921739 0 0 1 24.932174 2.671305l55.429565 59.436521v-60.104347a18.031304 18.031304 0 0 1 35.84 0v58.100869l55.429566-59.436522 1.335652-1.335652a19.144348 19.144348 0 0 1 26.267826 0 16.473043 16.473043 0 0 1-1.335652 24.932174l-81.697392 89.043478v111.304348l99.728696-56.765217 37.398261-113.307826V311.652174a19.812174 19.812174 0 0 1 24.709565-9.572174 18.031304 18.031304 0 0 1 9.794783 23.373913l-24.932174 76.132174 51.2-28.93913A19.366957 19.366957 0 0 1 756.869565 378.434783a19.812174 19.812174 0 0 1-6.900869 24.932174l-51.2 28.93913 80.13913 16.695652 1.558261 1.335652a18.031304 18.031304 0 1 1-9.794783 34.504348l-118.873043-24.932174-98.393044 55.429565 98.393044 55.429566 118.873043-24.932174h2.671305a18.031304 18.031304 0 1 1 5.787826 35.84z" p-id="819"></path></svg>